<svg xmlns="http://www.w3.org/2000/svg" viewBox="0 0 141 127">
    <path fill="currentColor" d="M82.9599 104.78C104.298 99.0623 120.01 79.5897 120.01 56.4475C120.01 28.815 97.6097 6.41449 69.9773 6.41449C42.3448 6.41449 19.9442 28.815 19.9442 56.4475H13.5297C13.5297 25.2724 38.8022 0 69.9773 0C101.152 0 126.425 25.2724 126.425 56.4475C126.425 72.2328 119.945 86.5047 109.501 96.7488C109.502 96.7493 109.503 96.7497 109.504 96.7502C102.664 103.458 94.1243 108.438 84.5907 110.985C84.4656 111.019 84.3403 111.052 84.2149 111.084C84.186 111.092 84.157 111.099 84.1281 111.107C83.7961 111.192 83.463 111.275 83.1287 111.355L83.1238 111.376C81.7702 117.385 76.4006 121.874 69.9825 121.874C62.543 121.874 56.5121 115.843 56.5121 108.404C56.5121 100.964 62.543 94.9331 69.9825 94.9331C76.1666 94.9331 81.3774 99.1003 82.9599 104.78ZM88.0737 116.664C98.4876 113.539 107.766 107.788 115.138 100.179C125.272 106.924 133.81 115.878 140.063 126.353H78.5507C82.7513 124.344 86.1347 120.904 88.0737 116.664ZM0.0634766 126.353H61.4153C54.7215 123.153 50.0976 116.318 50.0976 108.404C50.0976 97.4214 59.0004 88.5186 69.9825 88.5186C76.7005 88.5186 82.6321 91.847 86.2307 96.94C89.9727 95.4372 93.4579 93.4305 96.6026 91.0041L96.4951 90.9671C106.566 83.1016 113.041 70.8454 113.041 57.0768C113.041 33.3413 93.799 14.0998 70.0635 14.0998C46.328 14.0998 27.0864 33.3413 27.0864 57.0768C27.0864 70.8454 33.561 83.1016 43.6319 90.9671C25.2648 97.2639 9.86029 109.941 0.0634766 126.353Z"></path>
</svg>
