<svg xmlns="http://www.w3.org/2000/svg" viewBox="0 0 231.8 178.6">
    <path d="M30.8,150.2c4.6-5.5,8.7-12.3,10.9-15.9c14.7-23.5,51.6-95.6,78.7-107.5c2.3,4.7,7.2,7.8,12.7,7.8 c3.1,0,6-1,8.3-2.7c1.3,2.9,1.8,6.6,1.6,11.3c-1.3,32.4-23.6,67.7-27.5,101c-1.7,14.6,2,28.3,20.2,28.3c22.8,0,48.4-18.3,68.4-34.2 c1.6,0.6,3.2,0.9,5,0.9c7.9,0,14.3-6.4,14.3-14.3s-6.4-14.3-14.3-14.3c-7.9,0-14.3,6.4-14.3,14.3c0,2.6,0.7,5,1.9,7.1 c-18.2,14.4-41.8,30.9-61,30.9c-19.5,0-8.5-30.6-5.5-40.5c7.2-23.3,21.3-56.1,22.2-78.9c0.3-8-1.2-15.3-5.5-20.3 c0.2-0.9,0.3-1.9,0.3-2.9c0-7.9-6.4-14.3-14.3-14.3c-6.8,0-12.5,4.7-13.9,11.1C82.5,30.3,40.7,123.3,23.4,144.7 c-1.4-0.5-2.9-0.7-4.5-0.7c-7.9,0-14.3,6.4-14.3,14.3c0,7.9,6.4,14.3,14.3,14.3s14.3-6.4,14.3-14.3 C33.2,155.2,32.3,152.5,30.8,150.2z"></path>
</svg>
